<mxfile host="Electron" agent="Mozilla/5.0 (Windows NT 10.0; Win64; x64) AppleWebKit/537.36 (KHTML, like Gecko) draw.io/24.7.8 Chrome/128.0.6613.36 Electron/32.0.1 Safari/537.36" version="24.7.8">
  <diagram id="C5RBs43oDa-KdzZeNtuy" name="Page-1">
    <mxGraphModel dx="1746" dy="974" grid="1" gridSize="10" guides="1" tooltips="1" connect="1" arrows="1" fold="1" page="1" pageScale="1" pageWidth="827" pageHeight="1169" math="0" shadow="0">
      <root>
        <mxCell id="WIyWlLk6GJQsqaUBKTNV-0" />
        <mxCell id="WIyWlLk6GJQsqaUBKTNV-1" parent="WIyWlLk6GJQsqaUBKTNV-0" />
        <mxCell id="6_lR2xCPuKKpcIwYhs6z-3" value="" style="edgeStyle=orthogonalEdgeStyle;rounded=0;orthogonalLoop=1;jettySize=auto;html=1;" parent="WIyWlLk6GJQsqaUBKTNV-1" source="6_lR2xCPuKKpcIwYhs6z-1" target="6_lR2xCPuKKpcIwYhs6z-2" edge="1">
          <mxGeometry relative="1" as="geometry" />
        </mxCell>
        <mxCell id="6_lR2xCPuKKpcIwYhs6z-1" value="START" style="strokeWidth=2;html=1;shape=mxgraph.flowchart.terminator;whiteSpace=wrap;" parent="WIyWlLk6GJQsqaUBKTNV-1" vertex="1">
          <mxGeometry x="194" y="34" width="180" height="100" as="geometry" />
        </mxCell>
        <mxCell id="zuEpxk_jyAyz_L_j_dM4-87" value="" style="edgeStyle=orthogonalEdgeStyle;rounded=0;orthogonalLoop=1;jettySize=auto;html=1;" edge="1" parent="WIyWlLk6GJQsqaUBKTNV-1" source="6_lR2xCPuKKpcIwYhs6z-2" target="6_lR2xCPuKKpcIwYhs6z-184">
          <mxGeometry relative="1" as="geometry" />
        </mxCell>
        <mxCell id="6_lR2xCPuKKpcIwYhs6z-2" value="&lt;div&gt;int&amp;nbsp;&lt;span style=&quot;background-color: initial;&quot;&gt;oldKey&lt;/span&gt;&lt;span style=&quot;background-color: initial;&quot;&gt;,oldValue,&amp;nbsp;&lt;/span&gt;&lt;span style=&quot;background-color: initial;&quot;&gt;trsKey, trsValue, newValue;&lt;/span&gt;&lt;/div&gt;&lt;div&gt;int flag = 0;&lt;/div&gt;" style="shape=hexagon;perimeter=hexagonPerimeter2;whiteSpace=wrap;html=1;fixedSize=1;strokeWidth=2;" parent="WIyWlLk6GJQsqaUBKTNV-1" vertex="1">
          <mxGeometry x="134" y="195" width="300" height="80" as="geometry" />
        </mxCell>
        <mxCell id="zuEpxk_jyAyz_L_j_dM4-90" value="" style="edgeStyle=orthogonalEdgeStyle;rounded=0;orthogonalLoop=1;jettySize=auto;html=1;entryX=0.177;entryY=0.002;entryDx=0;entryDy=0;entryPerimeter=0;" edge="1" parent="WIyWlLk6GJQsqaUBKTNV-1" source="6_lR2xCPuKKpcIwYhs6z-184" target="6_lR2xCPuKKpcIwYhs6z-6">
          <mxGeometry relative="1" as="geometry" />
        </mxCell>
        <mxCell id="6_lR2xCPuKKpcIwYhs6z-184" value="&quot;newMst&quot;" style="strokeWidth=2;html=1;shape=mxgraph.flowchart.display;whiteSpace=wrap;" parent="WIyWlLk6GJQsqaUBKTNV-1" vertex="1">
          <mxGeometry x="184" y="330" width="200" height="60" as="geometry" />
        </mxCell>
        <mxCell id="6_lR2xCPuKKpcIwYhs6z-6" value="True" style="swimlane;whiteSpace=wrap;html=1;startSize=23;" parent="WIyWlLk6GJQsqaUBKTNV-1" vertex="1">
          <mxGeometry x="73" y="442" width="1190" height="1168" as="geometry" />
        </mxCell>
        <mxCell id="6_lR2xCPuKKpcIwYhs6z-11" value="" style="group" parent="6_lR2xCPuKKpcIwYhs6z-6" vertex="1" connectable="0">
          <mxGeometry x="90" y="200" width="201" height="60" as="geometry" />
        </mxCell>
        <mxCell id="6_lR2xCPuKKpcIwYhs6z-14" value="" style="group" parent="6_lR2xCPuKKpcIwYhs6z-11" vertex="1" connectable="0">
          <mxGeometry width="201" height="60" as="geometry" />
        </mxCell>
        <mxCell id="6_lR2xCPuKKpcIwYhs6z-9" value="" style="verticalLabelPosition=bottom;verticalAlign=top;html=1;shape=card;whiteSpace=wrap;size=20;arcSize=12;" parent="6_lR2xCPuKKpcIwYhs6z-14" vertex="1">
          <mxGeometry width="201" height="60" as="geometry" />
        </mxCell>
        <mxCell id="6_lR2xCPuKKpcIwYhs6z-10" value="oldKey&lt;span style=&quot;background-color: initial;&quot;&gt;,oldValue&lt;/span&gt;" style="text;html=1;align=center;verticalAlign=middle;whiteSpace=wrap;rounded=0;" parent="6_lR2xCPuKKpcIwYhs6z-14" vertex="1">
          <mxGeometry x="40.199999999999996" y="20" width="120.6" height="30" as="geometry" />
        </mxCell>
        <mxCell id="6_lR2xCPuKKpcIwYhs6z-21" value="" style="edgeStyle=orthogonalEdgeStyle;rounded=0;orthogonalLoop=1;jettySize=auto;html=1;" parent="6_lR2xCPuKKpcIwYhs6z-6" source="6_lR2xCPuKKpcIwYhs6z-12" edge="1">
          <mxGeometry relative="1" as="geometry">
            <mxPoint x="358" y="576" as="targetPoint" />
          </mxGeometry>
        </mxCell>
        <mxCell id="6_lR2xCPuKKpcIwYhs6z-12" value="EOF" style="rhombus;whiteSpace=wrap;html=1;" parent="6_lR2xCPuKKpcIwYhs6z-6" vertex="1">
          <mxGeometry x="151" y="380" width="80" height="80" as="geometry" />
        </mxCell>
        <mxCell id="6_lR2xCPuKKpcIwYhs6z-18" value="Y" style="text;html=1;align=center;verticalAlign=middle;whiteSpace=wrap;rounded=0;" parent="6_lR2xCPuKKpcIwYhs6z-6" vertex="1">
          <mxGeometry x="138" y="458" width="60" height="30" as="geometry" />
        </mxCell>
        <mxCell id="6_lR2xCPuKKpcIwYhs6z-19" value="N" style="text;html=1;align=center;verticalAlign=middle;whiteSpace=wrap;rounded=0;" parent="6_lR2xCPuKKpcIwYhs6z-6" vertex="1">
          <mxGeometry x="212" y="392" width="60" height="30" as="geometry" />
        </mxCell>
        <mxCell id="6_lR2xCPuKKpcIwYhs6z-27" value="" style="edgeStyle=orthogonalEdgeStyle;rounded=0;orthogonalLoop=1;jettySize=auto;html=1;" parent="6_lR2xCPuKKpcIwYhs6z-6" source="6_lR2xCPuKKpcIwYhs6z-23" edge="1">
          <mxGeometry relative="1" as="geometry">
            <mxPoint x="358" y="746" as="targetPoint" />
          </mxGeometry>
        </mxCell>
        <mxCell id="6_lR2xCPuKKpcIwYhs6z-34" value="" style="edgeStyle=orthogonalEdgeStyle;rounded=0;orthogonalLoop=1;jettySize=auto;html=1;exitX=0.5;exitY=1;exitDx=0;exitDy=0;" parent="6_lR2xCPuKKpcIwYhs6z-6" source="6_lR2xCPuKKpcIwYhs6z-60" edge="1">
          <mxGeometry relative="1" as="geometry">
            <mxPoint x="427.25" y="621" as="sourcePoint" />
            <mxPoint x="658" y="697" as="targetPoint" />
            <Array as="points">
              <mxPoint x="658" y="620" />
            </Array>
          </mxGeometry>
        </mxCell>
        <mxCell id="6_lR2xCPuKKpcIwYhs6z-23" value="oldKey&amp;lt;trsKey" style="rhombus;whiteSpace=wrap;html=1;" parent="6_lR2xCPuKKpcIwYhs6z-6" vertex="1">
          <mxGeometry x="313" y="576" width="90" height="93" as="geometry" />
        </mxCell>
        <mxCell id="6_lR2xCPuKKpcIwYhs6z-59" value="" style="edgeStyle=orthogonalEdgeStyle;rounded=0;orthogonalLoop=1;jettySize=auto;html=1;entryX=0.5;entryY=0;entryDx=0;entryDy=0;entryPerimeter=0;" parent="6_lR2xCPuKKpcIwYhs6z-6" edge="1">
          <mxGeometry relative="1" as="geometry">
            <mxPoint x="358" y="809" as="sourcePoint" />
            <mxPoint x="358" y="880" as="targetPoint" />
          </mxGeometry>
        </mxCell>
        <mxCell id="6_lR2xCPuKKpcIwYhs6z-29" value="Y" style="text;html=1;align=center;verticalAlign=middle;whiteSpace=wrap;rounded=0;" parent="6_lR2xCPuKKpcIwYhs6z-6" vertex="1">
          <mxGeometry x="308" y="649" width="60" height="30" as="geometry" />
        </mxCell>
        <mxCell id="6_lR2xCPuKKpcIwYhs6z-61" value="" style="edgeStyle=orthogonalEdgeStyle;rounded=0;orthogonalLoop=1;jettySize=auto;html=1;" parent="6_lR2xCPuKKpcIwYhs6z-6" source="6_lR2xCPuKKpcIwYhs6z-35" edge="1">
          <mxGeometry relative="1" as="geometry">
            <mxPoint x="659.0526315789475" y="820" as="targetPoint" />
          </mxGeometry>
        </mxCell>
        <mxCell id="6_lR2xCPuKKpcIwYhs6z-71" value="" style="edgeStyle=orthogonalEdgeStyle;rounded=0;orthogonalLoop=1;jettySize=auto;html=1;" parent="6_lR2xCPuKKpcIwYhs6z-6" edge="1">
          <mxGeometry relative="1" as="geometry">
            <mxPoint x="675" y="736" as="sourcePoint" />
            <mxPoint x="949.0285714285715" y="793.0285714285715" as="targetPoint" />
            <Array as="points">
              <mxPoint x="675" y="739" />
              <mxPoint x="950" y="739" />
              <mxPoint x="950" y="793" />
            </Array>
          </mxGeometry>
        </mxCell>
        <mxCell id="6_lR2xCPuKKpcIwYhs6z-35" value="oldKey&amp;gt;trsKey" style="rhombus;whiteSpace=wrap;html=1;" parent="6_lR2xCPuKKpcIwYhs6z-6" vertex="1">
          <mxGeometry x="619" y="696" width="80" height="80" as="geometry" />
        </mxCell>
        <mxCell id="6_lR2xCPuKKpcIwYhs6z-63" value="" style="edgeStyle=orthogonalEdgeStyle;rounded=0;orthogonalLoop=1;jettySize=auto;html=1;exitX=0.55;exitY=0.95;exitDx=0;exitDy=0;exitPerimeter=0;" parent="6_lR2xCPuKKpcIwYhs6z-6" edge="1" source="6_lR2xCPuKKpcIwYhs6z-168">
          <mxGeometry relative="1" as="geometry">
            <mxPoint x="659.0526315789475" y="890" as="sourcePoint" />
            <mxPoint x="659" y="960" as="targetPoint" />
          </mxGeometry>
        </mxCell>
        <mxCell id="zuEpxk_jyAyz_L_j_dM4-96" value="" style="edgeStyle=orthogonalEdgeStyle;rounded=0;orthogonalLoop=1;jettySize=auto;html=1;" edge="1" parent="6_lR2xCPuKKpcIwYhs6z-6" source="6_lR2xCPuKKpcIwYhs6z-45">
          <mxGeometry relative="1" as="geometry">
            <mxPoint x="191" y="200" as="targetPoint" />
            <Array as="points">
              <mxPoint x="191" y="200" />
              <mxPoint x="191" y="200" />
            </Array>
          </mxGeometry>
        </mxCell>
        <mxCell id="zuEpxk_jyAyz_L_j_dM4-98" value="" style="edgeStyle=orthogonalEdgeStyle;rounded=0;orthogonalLoop=1;jettySize=auto;html=1;exitX=1;exitY=0.5;exitDx=0;exitDy=0;" edge="1" parent="6_lR2xCPuKKpcIwYhs6z-6" source="6_lR2xCPuKKpcIwYhs6z-45">
          <mxGeometry relative="1" as="geometry">
            <mxPoint x="280.88" y="96" as="sourcePoint" />
            <mxPoint x="420.13" y="126" as="targetPoint" />
            <Array as="points">
              <mxPoint x="231" y="96" />
              <mxPoint x="420" y="96" />
            </Array>
          </mxGeometry>
        </mxCell>
        <mxCell id="6_lR2xCPuKKpcIwYhs6z-45" value="flag==0" style="rhombus;whiteSpace=wrap;html=1;" parent="6_lR2xCPuKKpcIwYhs6z-6" vertex="1">
          <mxGeometry x="150.75" y="60" width="80" height="80" as="geometry" />
        </mxCell>
        <mxCell id="6_lR2xCPuKKpcIwYhs6z-60" value="N" style="text;html=1;align=center;verticalAlign=middle;whiteSpace=wrap;rounded=0;" parent="6_lR2xCPuKKpcIwYhs6z-6" vertex="1">
          <mxGeometry x="376.25" y="590" width="60" height="30" as="geometry" />
        </mxCell>
        <mxCell id="6_lR2xCPuKKpcIwYhs6z-64" value="Y" style="text;html=1;align=center;verticalAlign=middle;whiteSpace=wrap;rounded=0;" parent="6_lR2xCPuKKpcIwYhs6z-6" vertex="1">
          <mxGeometry x="609" y="764" width="60" height="30" as="geometry" />
        </mxCell>
        <mxCell id="6_lR2xCPuKKpcIwYhs6z-65" value="N" style="text;html=1;align=center;verticalAlign=middle;whiteSpace=wrap;rounded=0;" parent="6_lR2xCPuKKpcIwYhs6z-6" vertex="1">
          <mxGeometry x="689" y="689" width="60" height="30" as="geometry" />
        </mxCell>
        <mxCell id="6_lR2xCPuKKpcIwYhs6z-74" value="" style="edgeStyle=orthogonalEdgeStyle;rounded=0;orthogonalLoop=1;jettySize=auto;html=1;" parent="6_lR2xCPuKKpcIwYhs6z-6" source="6_lR2xCPuKKpcIwYhs6z-72" edge="1">
          <mxGeometry relative="1" as="geometry">
            <mxPoint x="948" y="900" as="targetPoint" />
          </mxGeometry>
        </mxCell>
        <mxCell id="6_lR2xCPuKKpcIwYhs6z-72" value="newValue = oldValue+trsValue" style="rounded=0;whiteSpace=wrap;html=1;" parent="6_lR2xCPuKKpcIwYhs6z-6" vertex="1">
          <mxGeometry x="857" y="794" width="182" height="60" as="geometry" />
        </mxCell>
        <mxCell id="6_lR2xCPuKKpcIwYhs6z-79" value="" style="edgeStyle=orthogonalEdgeStyle;rounded=0;orthogonalLoop=1;jettySize=auto;html=1;entryX=0.5;entryY=0;entryDx=0;entryDy=0;entryPerimeter=0;" parent="6_lR2xCPuKKpcIwYhs6z-6" edge="1">
          <mxGeometry relative="1" as="geometry">
            <mxPoint x="948" y="970" as="sourcePoint" />
            <mxPoint x="948" y="1020" as="targetPoint" />
          </mxGeometry>
        </mxCell>
        <mxCell id="6_lR2xCPuKKpcIwYhs6z-93" value="" style="edgeStyle=orthogonalEdgeStyle;rounded=0;orthogonalLoop=1;jettySize=auto;html=1;" parent="6_lR2xCPuKKpcIwYhs6z-6" edge="1">
          <mxGeometry relative="1" as="geometry">
            <mxPoint x="659.0000000000002" y="1021" as="sourcePoint" />
            <mxPoint x="660" y="1170" as="targetPoint" />
          </mxGeometry>
        </mxCell>
        <mxCell id="6_lR2xCPuKKpcIwYhs6z-156" value="Y" style="text;html=1;align=center;verticalAlign=middle;whiteSpace=wrap;rounded=0;" parent="6_lR2xCPuKKpcIwYhs6z-6" vertex="1">
          <mxGeometry x="130.5" y="126" width="60" height="30" as="geometry" />
        </mxCell>
        <mxCell id="6_lR2xCPuKKpcIwYhs6z-164" value="oldKey + &quot;|&quot; + newValue" style="strokeWidth=2;html=1;shape=mxgraph.flowchart.display;whiteSpace=wrap;" parent="6_lR2xCPuKKpcIwYhs6z-6" vertex="1">
          <mxGeometry x="848" y="906" width="200" height="60" as="geometry" />
        </mxCell>
        <mxCell id="6_lR2xCPuKKpcIwYhs6z-165" value="oldKey + &quot;|&quot; + oldValue" style="strokeWidth=2;html=1;shape=mxgraph.flowchart.display;whiteSpace=wrap;" parent="6_lR2xCPuKKpcIwYhs6z-6" vertex="1">
          <mxGeometry x="250.5" y="749" width="200" height="60" as="geometry" />
        </mxCell>
        <mxCell id="6_lR2xCPuKKpcIwYhs6z-168" value="trsKey + &quot;|&quot; + trsValue" style="strokeWidth=2;html=1;shape=mxgraph.flowchart.display;whiteSpace=wrap;" parent="6_lR2xCPuKKpcIwYhs6z-6" vertex="1">
          <mxGeometry x="549" y="823" width="200" height="60" as="geometry" />
        </mxCell>
        <mxCell id="zuEpxk_jyAyz_L_j_dM4-83" value="" style="edgeStyle=orthogonalEdgeStyle;rounded=0;orthogonalLoop=1;jettySize=auto;html=1;" edge="1" parent="6_lR2xCPuKKpcIwYhs6z-6" source="6_lR2xCPuKKpcIwYhs6z-9">
          <mxGeometry relative="1" as="geometry">
            <mxPoint x="191" y="288" as="targetPoint" />
          </mxGeometry>
        </mxCell>
        <mxCell id="zuEpxk_jyAyz_L_j_dM4-94" value="" style="edgeStyle=orthogonalEdgeStyle;rounded=0;orthogonalLoop=1;jettySize=auto;html=1;" edge="1" parent="6_lR2xCPuKKpcIwYhs6z-6" source="zuEpxk_jyAyz_L_j_dM4-92">
          <mxGeometry relative="1" as="geometry">
            <mxPoint x="358" y="1170" as="targetPoint" />
          </mxGeometry>
        </mxCell>
        <mxCell id="zuEpxk_jyAyz_L_j_dM4-92" value="flag = 1" style="rounded=0;whiteSpace=wrap;html=1;" vertex="1" parent="6_lR2xCPuKKpcIwYhs6z-6">
          <mxGeometry x="273.5" y="883" width="169" height="67" as="geometry" />
        </mxCell>
        <mxCell id="zuEpxk_jyAyz_L_j_dM4-95" value="flag = 2" style="rounded=0;whiteSpace=wrap;html=1;" vertex="1" parent="6_lR2xCPuKKpcIwYhs6z-6">
          <mxGeometry x="580" y="960" width="169" height="67" as="geometry" />
        </mxCell>
        <mxCell id="zuEpxk_jyAyz_L_j_dM4-102" value="" style="edgeStyle=orthogonalEdgeStyle;rounded=0;orthogonalLoop=1;jettySize=auto;html=1;" edge="1" parent="6_lR2xCPuKKpcIwYhs6z-6" source="zuEpxk_jyAyz_L_j_dM4-99" target="zuEpxk_jyAyz_L_j_dM4-101">
          <mxGeometry relative="1" as="geometry" />
        </mxCell>
        <mxCell id="zuEpxk_jyAyz_L_j_dM4-110" value="" style="edgeStyle=orthogonalEdgeStyle;rounded=0;orthogonalLoop=1;jettySize=auto;html=1;entryX=0.478;entryY=0;entryDx=0;entryDy=0;entryPerimeter=0;" edge="1" parent="6_lR2xCPuKKpcIwYhs6z-6" source="zuEpxk_jyAyz_L_j_dM4-99" target="zuEpxk_jyAyz_L_j_dM4-108">
          <mxGeometry relative="1" as="geometry">
            <mxPoint x="859" y="229.99999999999977" as="targetPoint" />
          </mxGeometry>
        </mxCell>
        <mxCell id="zuEpxk_jyAyz_L_j_dM4-99" value="flag==1" style="rhombus;whiteSpace=wrap;html=1;" vertex="1" parent="6_lR2xCPuKKpcIwYhs6z-6">
          <mxGeometry x="588.5" y="127" width="80" height="80" as="geometry" />
        </mxCell>
        <mxCell id="zuEpxk_jyAyz_L_j_dM4-101" value="" style="verticalLabelPosition=bottom;verticalAlign=top;html=1;shape=card;whiteSpace=wrap;size=20;arcSize=12;" vertex="1" parent="6_lR2xCPuKKpcIwYhs6z-6">
          <mxGeometry x="527" y="238" width="201" height="60" as="geometry" />
        </mxCell>
        <mxCell id="zuEpxk_jyAyz_L_j_dM4-106" value="oldKey&lt;span style=&quot;background-color: initial;&quot;&gt;,oldValue&lt;/span&gt;" style="text;html=1;align=center;verticalAlign=middle;whiteSpace=wrap;rounded=0;" vertex="1" parent="6_lR2xCPuKKpcIwYhs6z-6">
          <mxGeometry x="568.2" y="260" width="120.6" height="30" as="geometry" />
        </mxCell>
        <mxCell id="zuEpxk_jyAyz_L_j_dM4-108" value="" style="verticalLabelPosition=bottom;verticalAlign=top;html=1;shape=card;whiteSpace=wrap;size=20;arcSize=12;" vertex="1" parent="6_lR2xCPuKKpcIwYhs6z-6">
          <mxGeometry x="763" y="238" width="201" height="60" as="geometry" />
        </mxCell>
        <mxCell id="zuEpxk_jyAyz_L_j_dM4-115" value="&lt;div&gt;trsKey,&amp;nbsp;&lt;span style=&quot;background-color: initial;&quot;&gt;trsValue&lt;/span&gt;&lt;span style=&quot;background-color: initial;&quot;&gt;&lt;br&gt;&lt;/span&gt;&lt;/div&gt;" style="text;html=1;align=center;verticalAlign=middle;whiteSpace=wrap;rounded=0;" vertex="1" parent="6_lR2xCPuKKpcIwYhs6z-6">
          <mxGeometry x="798.7" y="258" width="120.6" height="30" as="geometry" />
        </mxCell>
        <mxCell id="zuEpxk_jyAyz_L_j_dM4-118" value="" style="edgeStyle=orthogonalEdgeStyle;rounded=0;orthogonalLoop=1;jettySize=auto;html=1;" edge="1" parent="6_lR2xCPuKKpcIwYhs6z-6" source="zuEpxk_jyAyz_L_j_dM4-116">
          <mxGeometry relative="1" as="geometry">
            <mxPoint x="948" y="1168" as="targetPoint" />
          </mxGeometry>
        </mxCell>
        <mxCell id="zuEpxk_jyAyz_L_j_dM4-116" value="flag = 0" style="rounded=0;whiteSpace=wrap;html=1;" vertex="1" parent="6_lR2xCPuKKpcIwYhs6z-6">
          <mxGeometry x="863.5" y="1018" width="169" height="67" as="geometry" />
        </mxCell>
        <mxCell id="zuEpxk_jyAyz_L_j_dM4-120" value="N" style="text;html=1;align=center;verticalAlign=middle;whiteSpace=wrap;rounded=0;" vertex="1" parent="6_lR2xCPuKKpcIwYhs6z-6">
          <mxGeometry x="213.5" y="60" width="60" height="30" as="geometry" />
        </mxCell>
        <mxCell id="zuEpxk_jyAyz_L_j_dM4-121" value="Y" style="text;html=1;align=center;verticalAlign=middle;whiteSpace=wrap;rounded=0;" vertex="1" parent="6_lR2xCPuKKpcIwYhs6z-6">
          <mxGeometry x="578" y="188" width="60" height="30" as="geometry" />
        </mxCell>
        <mxCell id="zuEpxk_jyAyz_L_j_dM4-122" value="N" style="text;html=1;align=center;verticalAlign=middle;whiteSpace=wrap;rounded=0;" vertex="1" parent="6_lR2xCPuKKpcIwYhs6z-6">
          <mxGeometry x="652.5" y="142" width="60" height="30" as="geometry" />
        </mxCell>
        <mxCell id="zuEpxk_jyAyz_L_j_dM4-124" value="" style="edgeStyle=orthogonalEdgeStyle;rounded=0;orthogonalLoop=1;jettySize=auto;html=1;" edge="1" parent="6_lR2xCPuKKpcIwYhs6z-6" target="6_lR2xCPuKKpcIwYhs6z-12">
          <mxGeometry relative="1" as="geometry">
            <mxPoint x="191" y="348" as="sourcePoint" />
          </mxGeometry>
        </mxCell>
        <mxCell id="zuEpxk_jyAyz_L_j_dM4-129" value="" style="endArrow=none;html=1;rounded=0;" edge="1" parent="6_lR2xCPuKKpcIwYhs6z-6">
          <mxGeometry width="50" height="50" relative="1" as="geometry">
            <mxPoint x="658.23" y="1208" as="sourcePoint" />
            <mxPoint x="658.23" y="1158" as="targetPoint" />
          </mxGeometry>
        </mxCell>
        <mxCell id="zuEpxk_jyAyz_L_j_dM4-130" value="" style="endArrow=none;html=1;rounded=0;" edge="1" parent="6_lR2xCPuKKpcIwYhs6z-6">
          <mxGeometry width="50" height="50" relative="1" as="geometry">
            <mxPoint x="947" y="1208" as="sourcePoint" />
            <mxPoint x="947.23" y="1148" as="targetPoint" />
          </mxGeometry>
        </mxCell>
        <mxCell id="6_lR2xCPuKKpcIwYhs6z-160" value="" style="endArrow=none;html=1;rounded=0;entryX=0.5;entryY=1;entryDx=0;entryDy=0;" parent="WIyWlLk6GJQsqaUBKTNV-1" edge="1">
          <mxGeometry width="50" height="50" relative="1" as="geometry">
            <mxPoint x="263" y="1590" as="sourcePoint" />
            <mxPoint x="263" y="900" as="targetPoint" />
          </mxGeometry>
        </mxCell>
        <mxCell id="zuEpxk_jyAyz_L_j_dM4-78" value="" style="group" vertex="1" connectable="0" parent="WIyWlLk6GJQsqaUBKTNV-1">
          <mxGeometry x="350" y="1780" width="630" height="1330" as="geometry" />
        </mxCell>
        <mxCell id="zuEpxk_jyAyz_L_j_dM4-26" value="True" style="swimlane;whiteSpace=wrap;html=1;" vertex="1" parent="zuEpxk_jyAyz_L_j_dM4-78">
          <mxGeometry width="630" height="460" as="geometry" />
        </mxCell>
        <mxCell id="zuEpxk_jyAyz_L_j_dM4-36" value="" style="edgeStyle=orthogonalEdgeStyle;rounded=0;orthogonalLoop=1;jettySize=auto;html=1;" edge="1" parent="zuEpxk_jyAyz_L_j_dM4-26" source="zuEpxk_jyAyz_L_j_dM4-30">
          <mxGeometry relative="1" as="geometry">
            <mxPoint x="392.5" y="295" as="targetPoint" />
          </mxGeometry>
        </mxCell>
        <mxCell id="zuEpxk_jyAyz_L_j_dM4-30" value="EOF" style="rhombus;whiteSpace=wrap;html=1;" vertex="1" parent="zuEpxk_jyAyz_L_j_dM4-26">
          <mxGeometry x="192.5" y="170" width="80" height="80" as="geometry" />
        </mxCell>
        <mxCell id="zuEpxk_jyAyz_L_j_dM4-68" value="" style="edgeStyle=orthogonalEdgeStyle;rounded=0;orthogonalLoop=1;jettySize=auto;html=1;" edge="1" parent="zuEpxk_jyAyz_L_j_dM4-26" source="zuEpxk_jyAyz_L_j_dM4-37">
          <mxGeometry relative="1" as="geometry">
            <mxPoint x="402" y="465" as="targetPoint" />
          </mxGeometry>
        </mxCell>
        <mxCell id="zuEpxk_jyAyz_L_j_dM4-37" value="oldKey + &quot;|&quot; + oldValue" style="strokeWidth=2;html=1;shape=mxgraph.flowchart.display;whiteSpace=wrap;" vertex="1" parent="zuEpxk_jyAyz_L_j_dM4-26">
          <mxGeometry x="302" y="295" width="200" height="60" as="geometry" />
        </mxCell>
        <mxCell id="zuEpxk_jyAyz_L_j_dM4-38" value="Y" style="text;html=1;align=center;verticalAlign=middle;whiteSpace=wrap;rounded=0;" vertex="1" parent="zuEpxk_jyAyz_L_j_dM4-26">
          <mxGeometry x="172" y="235" width="60" height="30" as="geometry" />
        </mxCell>
        <mxCell id="zuEpxk_jyAyz_L_j_dM4-39" value="N" style="text;html=1;align=center;verticalAlign=middle;whiteSpace=wrap;rounded=0;" vertex="1" parent="zuEpxk_jyAyz_L_j_dM4-26">
          <mxGeometry x="252" y="175" width="59.25" height="30" as="geometry" />
        </mxCell>
        <mxCell id="zuEpxk_jyAyz_L_j_dM4-27" value="" style="group" vertex="1" connectable="0" parent="zuEpxk_jyAyz_L_j_dM4-78">
          <mxGeometry x="130" y="70" width="201" height="60" as="geometry" />
        </mxCell>
        <mxCell id="zuEpxk_jyAyz_L_j_dM4-28" value="" style="verticalLabelPosition=bottom;verticalAlign=top;html=1;shape=card;whiteSpace=wrap;size=20;arcSize=12;" vertex="1" parent="zuEpxk_jyAyz_L_j_dM4-27">
          <mxGeometry width="201" height="60" as="geometry" />
        </mxCell>
        <mxCell id="zuEpxk_jyAyz_L_j_dM4-29" value="oldKey&lt;span style=&quot;background-color: initial;&quot;&gt;,oldValue&lt;/span&gt;" style="text;html=1;align=center;verticalAlign=middle;whiteSpace=wrap;rounded=0;" vertex="1" parent="zuEpxk_jyAyz_L_j_dM4-27">
          <mxGeometry x="40.199999999999996" y="20" width="120.6" height="30" as="geometry" />
        </mxCell>
        <mxCell id="zuEpxk_jyAyz_L_j_dM4-31" value="" style="edgeStyle=orthogonalEdgeStyle;rounded=0;orthogonalLoop=1;jettySize=auto;html=1;" edge="1" parent="zuEpxk_jyAyz_L_j_dM4-78">
          <mxGeometry relative="1" as="geometry">
            <mxPoint x="230.5" y="128" as="sourcePoint" />
            <mxPoint x="231" y="170" as="targetPoint" />
          </mxGeometry>
        </mxCell>
        <mxCell id="zuEpxk_jyAyz_L_j_dM4-42" value="" style="endArrow=none;html=1;rounded=0;entryX=1;entryY=0.5;entryDx=0;entryDy=0;" edge="1" parent="zuEpxk_jyAyz_L_j_dM4-78" target="zuEpxk_jyAyz_L_j_dM4-38">
          <mxGeometry width="50" height="50" relative="1" as="geometry">
            <mxPoint x="232" y="450" as="sourcePoint" />
            <mxPoint x="232" y="115" as="targetPoint" />
          </mxGeometry>
        </mxCell>
        <mxCell id="zuEpxk_jyAyz_L_j_dM4-65" value="" style="edgeStyle=orthogonalEdgeStyle;rounded=0;orthogonalLoop=1;jettySize=auto;html=1;entryX=0.48;entryY=0.003;entryDx=0;entryDy=0;entryPerimeter=0;" edge="1" parent="zuEpxk_jyAyz_L_j_dM4-78" source="zuEpxk_jyAyz_L_j_dM4-49" target="zuEpxk_jyAyz_L_j_dM4-50">
          <mxGeometry relative="1" as="geometry">
            <mxPoint x="230" y="592.0000000000005" as="targetPoint" />
          </mxGeometry>
        </mxCell>
        <mxCell id="zuEpxk_jyAyz_L_j_dM4-49" value="" style="verticalLabelPosition=bottom;verticalAlign=top;html=1;shape=mxgraph.basic.arc;startAngle=0.5095378621179181;endAngle=0.015032969867547303;rotation=-180;" vertex="1" parent="zuEpxk_jyAyz_L_j_dM4-78">
          <mxGeometry x="210" y="452" width="40" height="40" as="geometry" />
        </mxCell>
        <mxCell id="zuEpxk_jyAyz_L_j_dM4-50" value="True" style="swimlane;whiteSpace=wrap;html=1;" vertex="1" parent="zuEpxk_jyAyz_L_j_dM4-78">
          <mxGeometry y="610" width="630" height="460" as="geometry" />
        </mxCell>
        <mxCell id="zuEpxk_jyAyz_L_j_dM4-51" value="" style="edgeStyle=orthogonalEdgeStyle;rounded=0;orthogonalLoop=1;jettySize=auto;html=1;" edge="1" parent="zuEpxk_jyAyz_L_j_dM4-50" source="zuEpxk_jyAyz_L_j_dM4-52">
          <mxGeometry relative="1" as="geometry">
            <mxPoint x="392.5" y="285" as="targetPoint" />
          </mxGeometry>
        </mxCell>
        <mxCell id="zuEpxk_jyAyz_L_j_dM4-52" value="EOF" style="rhombus;whiteSpace=wrap;html=1;" vertex="1" parent="zuEpxk_jyAyz_L_j_dM4-50">
          <mxGeometry x="192.5" y="160" width="80" height="80" as="geometry" />
        </mxCell>
        <mxCell id="zuEpxk_jyAyz_L_j_dM4-73" value="" style="edgeStyle=orthogonalEdgeStyle;rounded=0;orthogonalLoop=1;jettySize=auto;html=1;" edge="1" parent="zuEpxk_jyAyz_L_j_dM4-50" source="zuEpxk_jyAyz_L_j_dM4-54">
          <mxGeometry relative="1" as="geometry">
            <mxPoint x="402" y="460" as="targetPoint" />
          </mxGeometry>
        </mxCell>
        <mxCell id="zuEpxk_jyAyz_L_j_dM4-54" value="trsKey + &quot;|&quot; + trsValue" style="strokeWidth=2;html=1;shape=mxgraph.flowchart.display;whiteSpace=wrap;" vertex="1" parent="zuEpxk_jyAyz_L_j_dM4-50">
          <mxGeometry x="302" y="285" width="200" height="60" as="geometry" />
        </mxCell>
        <mxCell id="zuEpxk_jyAyz_L_j_dM4-55" value="Y" style="text;html=1;align=center;verticalAlign=middle;whiteSpace=wrap;rounded=0;" vertex="1" parent="zuEpxk_jyAyz_L_j_dM4-50">
          <mxGeometry x="172" y="225" width="60" height="30" as="geometry" />
        </mxCell>
        <mxCell id="zuEpxk_jyAyz_L_j_dM4-56" value="N" style="text;html=1;align=center;verticalAlign=middle;whiteSpace=wrap;rounded=0;" vertex="1" parent="zuEpxk_jyAyz_L_j_dM4-50">
          <mxGeometry x="252" y="165" width="59.25" height="30" as="geometry" />
        </mxCell>
        <mxCell id="zuEpxk_jyAyz_L_j_dM4-57" value="" style="group" vertex="1" connectable="0" parent="zuEpxk_jyAyz_L_j_dM4-78">
          <mxGeometry x="130" y="680" width="201" height="60" as="geometry" />
        </mxCell>
        <mxCell id="zuEpxk_jyAyz_L_j_dM4-58" value="" style="verticalLabelPosition=bottom;verticalAlign=top;html=1;shape=card;whiteSpace=wrap;size=20;arcSize=12;" vertex="1" parent="zuEpxk_jyAyz_L_j_dM4-57">
          <mxGeometry width="201" height="60" as="geometry" />
        </mxCell>
        <mxCell id="zuEpxk_jyAyz_L_j_dM4-59" value="trsKey, trsValue" style="text;html=1;align=center;verticalAlign=middle;whiteSpace=wrap;rounded=0;" vertex="1" parent="zuEpxk_jyAyz_L_j_dM4-57">
          <mxGeometry x="40.199999999999996" y="20" width="120.6" height="30" as="geometry" />
        </mxCell>
        <mxCell id="zuEpxk_jyAyz_L_j_dM4-60" value="" style="edgeStyle=orthogonalEdgeStyle;rounded=0;orthogonalLoop=1;jettySize=auto;html=1;" edge="1" parent="zuEpxk_jyAyz_L_j_dM4-78">
          <mxGeometry relative="1" as="geometry">
            <mxPoint x="230.5" y="738" as="sourcePoint" />
            <mxPoint x="231" y="780" as="targetPoint" />
          </mxGeometry>
        </mxCell>
        <mxCell id="zuEpxk_jyAyz_L_j_dM4-61" value="" style="endArrow=none;html=1;rounded=0;entryX=1;entryY=0.5;entryDx=0;entryDy=0;" edge="1" parent="zuEpxk_jyAyz_L_j_dM4-78" target="zuEpxk_jyAyz_L_j_dM4-55">
          <mxGeometry width="50" height="50" relative="1" as="geometry">
            <mxPoint x="232" y="1060" as="sourcePoint" />
            <mxPoint x="232" y="725" as="targetPoint" />
          </mxGeometry>
        </mxCell>
        <mxCell id="zuEpxk_jyAyz_L_j_dM4-62" value="" style="endArrow=none;html=1;rounded=0;" edge="1" parent="zuEpxk_jyAyz_L_j_dM4-78">
          <mxGeometry width="50" height="50" relative="1" as="geometry">
            <mxPoint x="230.28571428571422" y="675" as="sourcePoint" />
            <mxPoint x="230" y="635" as="targetPoint" />
          </mxGeometry>
        </mxCell>
        <mxCell id="zuEpxk_jyAyz_L_j_dM4-75" value="" style="edgeStyle=orthogonalEdgeStyle;rounded=0;orthogonalLoop=1;jettySize=auto;html=1;exitX=0.471;exitY=-0.139;exitDx=0;exitDy=0;exitPerimeter=0;" edge="1" parent="zuEpxk_jyAyz_L_j_dM4-78">
          <mxGeometry relative="1" as="geometry">
            <mxPoint x="231.16000000000008" y="1096.56" as="sourcePoint" />
            <mxPoint x="300" y="1231" as="targetPoint" />
            <Array as="points">
              <mxPoint x="231" y="1171" />
              <mxPoint x="300" y="1171" />
            </Array>
          </mxGeometry>
        </mxCell>
        <mxCell id="zuEpxk_jyAyz_L_j_dM4-63" value="" style="verticalLabelPosition=bottom;verticalAlign=top;html=1;shape=mxgraph.basic.arc;startAngle=0.5095378621179181;endAngle=0.015032969867547303;rotation=-180;" vertex="1" parent="zuEpxk_jyAyz_L_j_dM4-78">
          <mxGeometry x="210" y="1060" width="40" height="40" as="geometry" />
        </mxCell>
        <mxCell id="zuEpxk_jyAyz_L_j_dM4-71" value="" style="endArrow=classic;html=1;rounded=0;" edge="1" parent="zuEpxk_jyAyz_L_j_dM4-78">
          <mxGeometry width="50" height="50" relative="1" as="geometry">
            <mxPoint x="402" y="462" as="sourcePoint" />
            <mxPoint x="302" y="610" as="targetPoint" />
            <Array as="points">
              <mxPoint x="402" y="552" />
              <mxPoint x="362" y="552" />
              <mxPoint x="302" y="552" />
            </Array>
          </mxGeometry>
        </mxCell>
        <mxCell id="zuEpxk_jyAyz_L_j_dM4-76" value="" style="endArrow=classic;html=1;rounded=0;entryX=0.486;entryY=0.779;entryDx=0;entryDy=0;entryPerimeter=0;" edge="1" parent="zuEpxk_jyAyz_L_j_dM4-78">
          <mxGeometry width="50" height="50" relative="1" as="geometry">
            <mxPoint x="400" y="1061" as="sourcePoint" />
            <mxPoint x="300" y="1231" as="targetPoint" />
            <Array as="points">
              <mxPoint x="400" y="1171" />
              <mxPoint x="300" y="1171" />
            </Array>
          </mxGeometry>
        </mxCell>
        <mxCell id="zuEpxk_jyAyz_L_j_dM4-77" value="END" style="strokeWidth=2;html=1;shape=mxgraph.flowchart.terminator;whiteSpace=wrap;" vertex="1" parent="zuEpxk_jyAyz_L_j_dM4-78">
          <mxGeometry x="210" y="1230" width="180" height="100" as="geometry" />
        </mxCell>
        <mxCell id="zuEpxk_jyAyz_L_j_dM4-126" value="" style="edgeStyle=orthogonalEdgeStyle;rounded=0;orthogonalLoop=1;jettySize=auto;html=1;" edge="1" parent="WIyWlLk6GJQsqaUBKTNV-1" source="6_lR2xCPuKKpcIwYhs6z-169">
          <mxGeometry relative="1" as="geometry">
            <mxPoint x="630" y="1780" as="targetPoint" />
            <Array as="points">
              <mxPoint x="263" y="1650" />
              <mxPoint x="630" y="1650" />
            </Array>
          </mxGeometry>
        </mxCell>
        <mxCell id="6_lR2xCPuKKpcIwYhs6z-169" value="" style="verticalLabelPosition=bottom;verticalAlign=top;html=1;shape=mxgraph.basic.arc;startAngle=0.5095378621179181;endAngle=0.015032969867547303;rotation=-180;" parent="WIyWlLk6GJQsqaUBKTNV-1" vertex="1">
          <mxGeometry x="243" y="1590" width="40" height="40" as="geometry" />
        </mxCell>
        <mxCell id="zuEpxk_jyAyz_L_j_dM4-119" value="" style="endArrow=classic;html=1;rounded=0;entryX=0.5;entryY=0;entryDx=0;entryDy=0;" edge="1" parent="WIyWlLk6GJQsqaUBKTNV-1" target="6_lR2xCPuKKpcIwYhs6z-45">
          <mxGeometry width="50" height="50" relative="1" as="geometry">
            <mxPoint x="264" y="470" as="sourcePoint" />
            <mxPoint x="690" y="730" as="targetPoint" />
          </mxGeometry>
        </mxCell>
        <mxCell id="zuEpxk_jyAyz_L_j_dM4-128" value="" style="endArrow=none;html=1;rounded=0;" edge="1" parent="WIyWlLk6GJQsqaUBKTNV-1">
          <mxGeometry width="50" height="50" relative="1" as="geometry">
            <mxPoint x="430" y="1650" as="sourcePoint" />
            <mxPoint x="430" y="1600" as="targetPoint" />
          </mxGeometry>
        </mxCell>
        <mxCell id="zuEpxk_jyAyz_L_j_dM4-131" value="" style="endArrow=none;html=1;rounded=0;" edge="1" parent="WIyWlLk6GJQsqaUBKTNV-1">
          <mxGeometry width="50" height="50" relative="1" as="geometry">
            <mxPoint x="630" y="1650" as="sourcePoint" />
            <mxPoint x="1020" y="1650" as="targetPoint" />
          </mxGeometry>
        </mxCell>
        <mxCell id="zuEpxk_jyAyz_L_j_dM4-107" value="" style="group" vertex="1" connectable="0" parent="WIyWlLk6GJQsqaUBKTNV-1">
          <mxGeometry x="350" y="740" width="201" height="60" as="geometry" />
        </mxCell>
        <mxCell id="zuEpxk_jyAyz_L_j_dM4-81" value="" style="verticalLabelPosition=bottom;verticalAlign=top;html=1;shape=card;whiteSpace=wrap;size=20;arcSize=12;" vertex="1" parent="zuEpxk_jyAyz_L_j_dM4-107">
          <mxGeometry width="201" height="60" as="geometry" />
        </mxCell>
        <mxCell id="zuEpxk_jyAyz_L_j_dM4-82" value="&lt;div&gt;trsKey,&amp;nbsp;&lt;span style=&quot;background-color: initial;&quot;&gt;trsValue&lt;/span&gt;&lt;span style=&quot;background-color: initial;&quot;&gt;&lt;br&gt;&lt;/span&gt;&lt;/div&gt;" style="text;html=1;align=center;verticalAlign=middle;whiteSpace=wrap;rounded=0;" vertex="1" parent="zuEpxk_jyAyz_L_j_dM4-107">
          <mxGeometry x="40.199999999999996" y="20" width="120.6" height="30" as="geometry" />
        </mxCell>
      </root>
    </mxGraphModel>
  </diagram>
</mxfile>
